<svg xmlns="http://www.w3.org/2000/svg" width="162" height="162" fill="none"><circle cx="81" cy="81" r="75" fill="#fff" stroke="#5382a1" stroke-width="12"/><g fill-rule="evenodd"><path d="M89.201 28.062c-.016.042.005.268.048.502l.152.984c.041.307.088 1.051.104 1.652l-.027 1.797-.127 1.191-.15.852-.198.851-.268.972-.38 1.093-.48 1.159-.497 1.02-.419.761-.559.875-.813 1.142-.585.74-.417.486c-.141.168-.556.601-.921.962l-.959.923-.461.412-.578.486-.509.42-.849.697-1.061.866-.364.301a54.1 54.1 0 0 1-.709.58l-.825.679-.359.294-.557.462-.611.51-.295.243-.456.389-.796.68-.901.778-.655.565-.413.36-.701.626-.776.709-.894.851-1.142 1.143-.879.923-.554.632-.29.34a6.85 6.85 0 0 0-.206.249l-.505.656-.677.966c-.193.294-.492.808-.663 1.142l-.365.753-.219.584c-.091.241-.214.642-.272.891s-.124.713-.146 1.032-.022.759.001.98a8.72 8.72 0 0 0 .114.753c.041.193.119.488.175.656a11.93 11.93 0 0 0 .301.767l.511 1.069.728 1.312.445.729a4.44 4.44 0 0 1 .216.316l.65.948 1.066 1.458 1.07 1.385.489.608a9.17 9.17 0 0 1 .217.267l.751.899 1.112 1.288.947 1.069.78.852.699.754.7.752 1.503 1.543 1.129 1.115c.008-.008-.11-.2-.264-.425l-.66-.921-.683-.972-.769-1.181-.468-.761c0-.023-.019-.05-.042-.058s-.275-.396-.561-.861l-.995-1.677-.793-1.421-.779-1.531-.755-1.635-.559-1.47-.431-1.42-.218-.887-.11-.632a9.277 9.277 0 0 1-.057-1.045c0-.421.03-.811.083-1.09a10.23 10.23 0 0 1 .277-1.021c.106-.323.323-.859.481-1.191l.582-1.118.446-.757.634-.923L73 61.43l.66-.799.532-.608 1.113-1.218 1.899-1.944 1.894-1.871 1.738-1.677 1.624-1.555 1.044-.996.97-.922 1.362-1.336 1.233-1.314.786-1.008.834-1.24.707-1.248.471-.995.312-.756.309-.894c.105-.318.246-.832.314-1.142l.169-.759c.026-.107.07-.358.099-.559l.122-1.045c.038-.374.07-1.14.07-1.701l-.049-1.58-.123-1.093-.195-1.191-.287-1.312-.259-.927a6.6 6.6 0 0 0-.244-.583c-.083-.172-.278-.498-.433-.725s-.319-.42-.364-.429-.095.019-.111.061zm12.227 21.532-.485.145-1.14.347-.97.309-.776.269-1.018.364-1.431.548-1.625.665-1.6.717-1.479.708-1.382.731-1.406.8-1.309.825-1.043.706-.606.443-.291.223a5.06 5.06 0 0 1-.243.192l-.679.556-.655.56-.753.733-.913.965-.756.945-.73 1.077-.534.948-.401.899-.322.892a11.93 11.93 0 0 0-.247 1.008 13.76 13.76 0 0 0-.175 1.281 8.29 8.29 0 0 0-.001 1.422l.149 1.263.173.826.179.646.284.826.354.861.496.972.717 1.186 1.092 1.579 1.145 1.621.712 1.045.438.705.389.729c.12.241.284.645.364.899s.174.632.207.841c.038.238.05.59.032.948-.016.316-.07.731-.124.935s-.163.541-.245.755a12.96 12.96 0 0 1-.589 1.179l-.799 1.335-.816 1.176c-.311.431-.434.637-.386.648.038.009.345-.166.682-.389l1.148-.789 1.166-.897.873-.731 1.067-1.048 1.14-1.233.595-.825a13 13 0 0 0 .593-1.037 9.63 9.63 0 0 0 .457-1.045 7.36 7.36 0 0 0 .221-.867c.046-.258.077-.696.075-1.069a5.275 5.275 0 0 0-.124-1.214c-.067-.32-.233-.909-.369-1.308a16.34 16.34 0 0 0-.597-1.459l-.78-1.486-.46-.778a4.09 4.09 0 0 1-.227-.34l-.861-1.328-1.02-1.605-.6-1.077-.365-.777-.22-.607c-.055-.174-.133-.499-.174-.722s-.075-.606-.075-.85.034-.64.076-.879.141-.637.22-.885.282-.722.45-1.056a13.3 13.3 0 0 1 .639-1.108l.648-.914.366-.467a14.04 14.04 0 0 0 .289-.34c.131-.158.666-.713 1.188-1.235l1.216-1.192.897-.78 1.212-.999 1.188-.921 1.164-.871.921-.666 1.503-1.021 1.164-.792a.77.77 0 0 1 .105-.073l1.528-.975 1.917-1.215c.259-.159.472-.316.473-.349s-.014-.059-.034-.057-.059.011-.085.02z" fill="#e76f00"/><path d="m110.196 85.583-.825.119a13.31 13.31 0 0 0-1.003.227 7.63 7.63 0 0 0-1.11.415c-.303.145-.669.354-.813.462s-.253.207-.243.217.115-.002.232-.028.551-.082.964-.123l1.268-.076 1.019.049.841.102.703.141.732.211a7.46 7.46 0 0 1 .761.315 7.4 7.4 0 0 1 .723.415 5.43 5.43 0 0 1 .679.576c.191.195.438.474.548.621s.318.508.461.802a7.06 7.06 0 0 1 .39 1.017l.197.899a7.08 7.08 0 0 1 .068.927c0 .281-.034.702-.075.936s-.129.617-.196.85-.211.643-.318.911l-.371.826-.441.778-.296.462a2.774 2.774 0 0 0-.195.267l-.202.292-.584.705c-.3.361-.885.996-1.298 1.411l-1.19 1.142-.746.655-.374.306a1.55 1.55 0 0 0-.2.162c-.072.067-.503.402-.957.744l-1.238.905-.776.53-1.285.824-1.163.741c-.133.089-.212.162-.175.162s.331-.079.654-.175l1.654-.529 1.649-.576.873-.34.63-.265.655-.289.897-.431 1.067-.558.873-.506.485-.287a30.87 30.87 0 0 0 .801-.526l1.358-.994 1.231-1.083.703-.703.199-.219c.04-.042.255-.303.478-.579s.569-.757.769-1.069a12.51 12.51 0 0 0 .596-1.053c.128-.267.299-.683.38-.923s.182-.601.225-.802.091-.703.107-1.118c.017-.47.006-.918-.03-1.191a8.53 8.53 0 0 0-.174-.882l-.215-.691a9.92 9.92 0 0 0-.298-.649l-.232-.427a5.47 5.47 0 0 1-.265-.376 7.204 7.204 0 0 0-.679-.806l-.686-.66a13.113 13.113 0 0 0-.825-.598 11.05 11.05 0 0 0-1.091-.641l-.703-.33-.412-.153-.655-.195c-.24-.069-.644-.159-.897-.201s-.865-.085-1.358-.096-1.068 0-1.276.024zM66.055 86.68l-.752.093-1.164.15-1.431.239-1.382.268-.8.174-1.018.242-1.358.369-1.406.431-1.285.427-1.212.443-.824.325-.388.171-.921.441-.959.508-.276.162c-.011 0-.126.069-.254.153s-.4.321-.605.527c-.267.268-.387.428-.423.565a.671.671 0 0 0-.002.369c.031.112.129.249.266.369a3.37 3.37 0 0 0 .544.364 5.44 5.44 0 0 0 .691.292l.897.273.703.199.752.166 1.164.218 1.781.244 1.891.221 1.735.172 1.964.169 2.819.168 4.049.177 3.801.05 2.74-.078 2.425-.123 2.328-.147 2.061-.17 2.061-.195 1.576-.167 1.358-.145 2.57-.297 2.813-.363 1.576-.213 1.746-.246 1.936-.296c.578-.093.804-.151.994-.257l.998-.597.873-.531a1.05 1.05 0 0 0 .145-.095 5.97 5.97 0 0 1 .355-.231l.348-.205c.01 0 .32-.189.688-.42l.691-.437c.011-.01.008-.03-.007-.044s-.362.028-.772.096l-1.666.265-1.358.199-.703.102-1.528.215-2.401.313-2.449.293-2.328.242-2.231.216-2.473.222-2.546.196-2.934.195-3.443.149-4.316.022-3.322-.054-2.304-.097-2.158-.122-1.382-.12-1.649-.193-1.309-.2-.819-.196a6.301 6.301 0 0 1-.748-.264 3.11 3.11 0 0 1-.478-.267.97.97 0 0 1-.234-.264c-.04-.077-.072-.213-.072-.301s.064-.27.141-.403.246-.344.375-.467.383-.327.565-.452.629-.376.994-.557l1.221-.552 1.067-.417 1.649-.559 1.503-.462 1.309-.369.994-.292c.027-.011-.181-.018-.461-.017l-.606.018zm-2.934 12.447a11.91 11.91 0 0 0-.509.118l-.606.169-.558.202-.721.316c-.21.102-.559.303-.776.447s-.52.374-.674.512-.373.375-.487.526a4.31 4.31 0 0 0-.362.595c-.085.176-.19.459-.234.63a1.59 1.59 0 0 0-.05.563c.016.139.071.348.121.464a2.64 2.64 0 0 0 .243.418c.083.114.288.308.454.432s.52.33.787.459l.897.387.631.218.727.21c.28.08 1 .244 1.6.364l1.752.319 1.406.196 1.473.169 1.867.171 2.037.145 1.794.076 2.837.105 3.37.045 2.595-.103 1.722-.123 1.406-.146 1.722-.22 1.97-.313 2.11-.406 1.57-.347 1.212-.298 1.479-.388 1.576-.458 1.006-.32c.14-.046.255-.098.255-.114s-.177-.09-.393-.163-.593-.23-.837-.348-.612-.325-.818-.459l-.659-.453-.522-.402-.36-.305c-.067-.061-.209-.163-.316-.226s-.285-.128-.396-.146c-.12-.019-.366-.002-.606.043l-.986.175-1.503.242-2.449.338-2.958.34-2.619.242-2.085.149-1.722.099-1.964.107-4.316.061c-2.054 0-3.494-.022-4.074-.062l-1.649-.134-1.237-.147-1.067-.199-.947-.238c-.201-.064-.517-.191-.703-.283s-.446-.24-.579-.329a2.1 2.1 0 0 1-.42-.4 1.68 1.68 0 0 1-.238-.448 1.14 1.14 0 0 1-.024-.441 1.9 1.9 0 0 1 .158-.475 4.45 4.45 0 0 1 .258-.439 4.15 4.15 0 0 1 .297-.37l.254-.279c.067-.075.074-.102.024-.097l-.189.028zm2.004 11.776a7.07 7.07 0 0 0-.679.221c-.182.072-.569.25-.861.396l-.864.487a5.72 5.72 0 0 0-.594.458 3.36 3.36 0 0 0-.441.511 2.72 2.72 0 0 0-.275.57 1.667 1.667 0 0 0-.074.661 1.58 1.58 0 0 0 .18.701c.088.185.228.413.312.506l.228.247.254.23a6.51 6.51 0 0 0 .602.419l.727.415a13.73 13.73 0 0 0 .897.376l1.08.389 1.164.329 1.14.269 1.115.218.994.172 1.309.173 1.528.168 1.237.101 1.334.103c.36.028 1.633.063 2.828.078l3.177-.031 1.973-.154 1.626-.191 1.382-.212 1.527-.273 1.649-.35 1.044-.235.558-.137 1.09-.291 1.212-.324.511-.146a15.94 15.94 0 0 1 .606-.186l1.138-.344 1.01-.349.452-.175-.477-.19a26.712 26.712 0 0 1-1.398-.645l-1.673-.89-1.381-.81c-.346-.205-.715-.396-.82-.424-.163-.044-.296-.027-.922.123l-1.217.269-.994.17-.849.124-.655.094-1.6.169-2.303.194-2.061.136-4.68.062c-2.23 0-4.163-.024-4.995-.062l-1.94-.111-.994-.122-.994-.224a6.274 6.274 0 0 1-.987-.349 2.687 2.687 0 0 1-.625-.419c-.121-.121-.26-.307-.309-.414s-.089-.295-.09-.419a1.48 1.48 0 0 1 .066-.414c.037-.104.135-.297.218-.428s.152-.258.152-.279-.049-.037-.109-.035-.266.045-.458.094zm-10.369 7.782-1.285.14-1.503.221-1.503.27-1.77.407-1.419.385-.776.241-.958.337-1.018.412-.776.375-.468.273c-.071.05-.144.091-.162.091s-.244.157-.502.35-.567.45-.687.571l-.355.391a3.45 3.45 0 0 0-.303.51c-.092.187-.197.488-.234.669s-.048.34-.025.355.043.082.043.15.035.197.077.287.179.271.303.402a3.55 3.55 0 0 0 .491.419c.146.099.492.288.768.42s.757.329 1.068.437l1.075.343.825.217 1.212.26 1.77.337 1.552.245 1.406.194 1.964.218 2.134.195 1.867.148 2.134.146 2.11.122 3.007.125 6.28.103 6.62-.028 4.365-.128 3.007-.121 2.716-.147 2.934-.192 1.552-.121 1.382-.124 1.891-.196 2.061-.268 2.401-.364 1.988-.364 1.606-.339 1.77-.435 1.474-.391 1.398-.442 1.576-.574 1.051-.441.897-.437.776-.423.589-.358.597-.401c.165-.116.502-.413.748-.66.273-.273.492-.542.562-.688s.116-.334.119-.483a1 1 0 0 0-.133-.509c-.075-.146-.235-.382-.356-.523s-.356-.355-.524-.475-.321-.218-.341-.218-.014.027.013.061.108.225.181.425c.098.269.133.455.133.708-.001.232-.028.399-.086.511-.046.091-.152.252-.234.356s-.314.313-.516.463-.639.406-.972.569-.855.385-1.162.494l-.97.319-1.188.315-1.116.267-1.188.245-2.061.363-1.479.225-.921.124-1.77.213-1.625.171-1.261.123-2.498.219-2.861.217-2.037.122-2.376.122-2.522.122-3.177.122-4.171.12-4.607.077c-1.48.017-3.196.008-4.098-.022l-3.37-.174-3.54-.269-2.473-.221-2.304-.268-2.376-.313-1.794-.295-1.406-.269-1.196-.286-1.18-.336a8.21 8.21 0 0 1-.827-.35 4.857 4.857 0 0 1-.68-.418c-.184-.145-.306-.288-.372-.437a.75.75 0 0 1-.073-.408c.014-.103.071-.282.127-.398s.18-.302.275-.414.303-.303.462-.425.547-.352.864-.51l.908-.411.429-.167a7.78 7.78 0 0 1 .461-.164l.727-.228.582-.173.849-.21 1.6-.337 1.767-.33c.716-.125.776-.142.582-.172-.119-.018-.619-.031-1.113-.029l-1.431.045zm64.953 6.476-.381.274-.622.444-1.074.689-.873.514-1.018.531-1.261.603-1.188.488-1.019.39-.776.269-.824.265-1.14.339-1.309.366-1.527.373-2.158.461-2.062.385-1.528.244-1.43.199-1.6.196-1.964.216-1.964.192-2.231.17-2.473.145-1.503.075-2.013.061-5.504.037c-2.16 0-4.583-.017-5.383-.037l-2.57-.084-1.649-.072-1.528-.076-2.231-.122-1.94-.121-2.401-.195-3.031-.266-1.697-.148-1.087-.097-.74-.053c-.009.009.065.052.166.094s.575.187 1.055.321l1.528.411 1.285.316 1.722.366 2.255.414 2.449.371 1.94.245 1.406.142 1.988.168 2.619.17 3.104.129 4.753.028 4.534-.105 2.697-.146 2.498-.17 1.886-.148 1.528-.147 2.037-.219 2.352-.293 2.643-.39 2.548-.434 1.94-.387 1.549-.369 1.383-.383 1.236-.404 1.043-.375.703-.289.534-.223c.133-.05.624-.281 1.091-.514l1.285-.676.897-.549.485-.323c.013-.014.112-.09.218-.169l.431-.34a14.04 14.04 0 0 0 .679-.634l.607-.632a6.38 6.38 0 0 0 .346-.462 5.38 5.38 0 0 0 .288-.481c.06-.118.14-.322.179-.454s.064-.247.056-.254-.118.055-.242.14z" fill="#5382a1"/></g></svg>