<svg xmlns="http://www.w3.org/2000/svg" width="162" height="162" fill="none"><circle cx="81" cy="81" r="75" fill="#fff" stroke="#5382a1" stroke-width="12"/><g fill-rule="evenodd"><path d="m77.618 39.069-2.467.171-2.154.256-2.158.39-2.119.528-1.733.599-1.441.65-1.111.627a13.59 13.59 0 0 0-1.033.747c-.31.249-.759.671-.998.938s-.56.676-.713.907a8.77 8.77 0 0 0-.542 1.001c-.145.319-.317.79-.383 1.046-.082.318-.122.769-.127 1.43l.009 5.453.017 4.487h20.29v2.932H66.226l-15.513.106-1.202.217a22.14 22.14 0 0 0-.973.292c-.306.1-.903.352-1.327.561s-1.018.55-1.32.758a16.23 16.23 0 0 0-1.083.834c-.294.251-.744.688-.999.971a17.54 17.54 0 0 0-.878 1.072l-.767 1.144s-.567 1.038-.825 1.589-.655 1.576-.885 2.288a30.26 30.26 0 0 0-.627 2.253l-.351 1.859s-.186 1.328-.244 1.859a55.93 55.93 0 0 0-.185 2.575 48.61 48.61 0 0 0-.034 3.29l.149 2.995a50.92 50.92 0 0 0 .245 2.36l.347 2.092s.33 1.503.483 2.062a28.99 28.99 0 0 0 .597 1.886 26.25 26.25 0 0 0 .758 1.8 18.69 18.69 0 0 0 .994 1.788 17.32 17.32 0 0 0 1.113 1.513 12.73 12.73 0 0 0 1.135 1.151l.994.78a14.81 14.81 0 0 0 .822.516c.223.128.677.345 1.008.483s.915.336 1.297.439l.695.189 4.152.025 4.152.025.001-5.707.104-6.458a19.95 19.95 0 0 1 .316-1.633 16.04 16.04 0 0 1 .445-1.506 16.91 16.91 0 0 1 .545-1.266 15.42 15.42 0 0 1 .75-1.319c.261-.405.731-.979 1.17-1.431a10.46 10.46 0 0 1 1.382-1.198 11.97 11.97 0 0 1 1.216-.721c.312-.153.846-.379 1.186-.502s.997-.301 1.459-.396 1.183-.207 1.6-.248c.499-.05 4.423-.076 11.45-.076l11.366-.076a18.18 18.18 0 0 0 1.37-.219 16.46 16.46 0 0 0 1.538-.426c.464-.155 1.195-.46 1.625-.677a13.91 13.91 0 0 0 1.415-.839c.348-.244.931-.75 1.296-1.124s.838-.953 1.052-1.288.487-.809.607-1.055a13.37 13.37 0 0 0 .362-.822 14.55 14.55 0 0 0 .314-.947c.093-.315.238-.974.323-1.466l.154-.894V48.751l-.189-.703c-.103-.387-.341-1.031-.529-1.43s-.537-1.009-.777-1.355-.744-.931-1.119-1.301a13.82 13.82 0 0 0-1.393-1.18 16.463 16.463 0 0 0-1.599-.971 22.77 22.77 0 0 0-1.69-.787 25.48 25.48 0 0 0-1.872-.639c-.588-.174-1.517-.411-2.065-.528s-1.449-.279-2.004-.36-1.492-.196-2.085-.255a61.35 61.35 0 0 0-2.606-.179 63.597 63.597 0 0 0-2.849-.061 85.17 85.17 0 0 0-2.606.068zm-7.604 6.577c.227.042.635.186.906.32s.66.396.864.584a4.57 4.57 0 0 1 .636.766 4.33 4.33 0 0 1 .403.878c.075.249.156.654.179.899.028.292.005.63-.067.982-.06.295-.206.733-.324.973a4.64 4.64 0 0 1-.521.797 4.26 4.26 0 0 1-.7.629 4.666 4.666 0 0 1-.882.444c-.377.135-.633.175-1.119.177-.376.001-.778-.044-.996-.111a5.019 5.019 0 0 1-.764-.331 4.84 4.84 0 0 1-.721-.503 3.97 3.97 0 0 1-.584-.689 4.967 4.967 0 0 1-.434-.913c-.138-.407-.172-.643-.17-1.187.002-.483.044-.814.146-1.144.079-.256.236-.615.349-.798a5.8 5.8 0 0 1 .472-.638 4.02 4.02 0 0 1 .67-.574 4.22 4.22 0 0 1 .834-.413c.236-.079.508-.157.604-.174a4.56 4.56 0 0 1 .491-.04c.175-.005.503.025.73.067z" fill="#3875a5"/><path d="m83.382 122.933 2.467-.165 2.154-.247 2.158-.378 2.119-.512 1.733-.58 1.441-.63 1.111-.607c.258-.157.723-.482 1.033-.723a9.94 9.94 0 0 0 .998-.909 9.56 9.56 0 0 0 .713-.879 8.4 8.4 0 0 0 .542-.97 7.5 7.5 0 0 0 .383-1.012c.081-.309.122-.745.127-1.386l-.01-5.282-.017-4.347H80.047v-2.841h14.727l15.512-.103 1.202-.21a21.82 21.82 0 0 0 .973-.282c.306-.097.903-.341 1.328-.543s1.018-.533 1.32-.735a16.18 16.18 0 0 0 1.083-.808c.294-.243.743-.666.999-.941a17.12 17.12 0 0 0 .878-1.039l.767-1.108s.567-1.006.825-1.539a22.16 22.16 0 0 0 .885-2.217l.627-2.182s.275-1.325.351-1.801.186-1.287.244-1.801.141-1.637.184-2.494l.034-3.187-.148-2.902s-.167-1.729-.245-2.286a40.96 40.96 0 0 0-.347-2.026l-.483-1.997a27.32 27.32 0 0 0-.597-1.827 25.69 25.69 0 0 0-.758-1.744 18.05 18.05 0 0 0-.994-1.732 17.02 17.02 0 0 0-1.114-1.466 12.54 12.54 0 0 0-1.135-1.115l-.994-.756a15.08 15.08 0 0 0-.822-.5c-.223-.123-.677-.334-1.008-.468s-.914-.325-1.297-.426l-.694-.183-4.152-.024-4.152-.024-.001 5.528-.104 6.256c-.057.4-.199 1.112-.316 1.582a15.81 15.81 0 0 1-.445 1.459c-.127.332-.372.884-.545 1.227s-.51.917-.75 1.277a10.27 10.27 0 0 1-1.17 1.386c-.435.434-.997.906-1.382 1.161a12.16 12.16 0 0 1-1.216.699 14.73 14.73 0 0 1-1.186.486c-.34.119-.997.292-1.459.384s-1.183.2-1.6.241c-.499.048-4.423.074-11.45.074l-11.366.073a18.74 18.74 0 0 0-1.37.213c-.382.077-1.074.262-1.538.413s-1.195.446-1.625.656-1.067.576-1.415.813-.931.726-1.296 1.089a9.85 9.85 0 0 0-1.052 1.247 12.39 12.39 0 0 0-.607 1.022c-.119.238-.282.597-.362.797s-.221.613-.314.918-.238.944-.323 1.42l-.154.866v21.268l.189.682a10.01 10.01 0 0 0 .529 1.385 10.63 10.63 0 0 0 .778 1.312c.241.335.744.902 1.119 1.261a13.69 13.69 0 0 0 1.393 1.143 16.69 16.69 0 0 0 1.599.941c.488.247 1.248.59 1.69.763s1.284.45 1.872.619 1.517.398 2.065.511 1.449.27 2.004.348 1.492.19 2.085.247 1.765.136 2.606.174a64.98 64.98 0 0 0 2.849.059 85.57 85.57 0 0 0 2.606-.066zm7.604-6.371a4.44 4.44 0 0 1-.906-.309 4.372 4.372 0 0 1-.864-.566 4.53 4.53 0 0 1-.636-.742c-.147-.226-.328-.609-.403-.851s-.156-.633-.179-.871a3.178 3.178 0 0 1 .067-.951 4.64 4.64 0 0 1 .324-.942c.118-.232.352-.58.521-.772a4.2 4.2 0 0 1 .7-.609 4.68 4.68 0 0 1 .882-.43c.377-.131.633-.17 1.119-.171.376-.001.778.042.996.107.201.06.545.204.764.321a4.84 4.84 0 0 1 .721.487 3.89 3.89 0 0 1 .584.668c.144.216.339.613.434.884.138.394.172.623.17 1.15-.002.468-.044.789-.146 1.109-.079.247-.236.595-.349.773s-.325.455-.472.618-.448.412-.67.556a4.23 4.23 0 0 1-.834.4 6.04 6.04 0 0 1-.604.168c-.096.016-.317.033-.491.039s-.503-.025-.73-.066z" fill="#fcdb50"/></g></svg>